# xmcd
#
# Track frame offsets: 
#        180
#        14240
#        24350
#        34215
#        45895
#        56935
#        64870
#        79255
#        88230
#        102555
#        113205
#        124405
#        134350
#        144205
#        153475
#        167610
#        178415
#        188385
#        198565
#        209185
#        215965
#        230850
#        245450
#        257230
#        267835
#
# Disc length: 3682 seconds
#
# Revision: 0
# Processed by: cddbd v1.5.1PL0 Copyright (c) Steve Scherf et al.
# Submitted via: ExactAudioCopy v0.95a5
#
DISCID=880e6019
DTITLE=Countdown Country Singers - Christmas in the Country
DYEAR=2002
DGENRE=Xmas
TTITLE0=Silent Night
TTITLE1=Up on the Housetop
TTITLE2=Chipmunk Song
TTITLE3=Let It Snow!
TTITLE4=We Three Kings
TTITLE5=Deck the Halls
TTITLE6=The Most Wonderful Day of the Year
TTITLE7=Hark! The Herald Angels Sing
TTITLE8=The 12 Days of Christmas
TTITLE9=Fum Fum Fum
TTITLE10=Good King Wenceslas
TTITLE11=Christ Was Born on Christmas Day
TTITLE12=The Friendly Beasts
TTITLE13=Good Christian Men Rejoice!
TTITLE14=Home for the Holidays
TTITLE15=The Little Drummer Boy
TTITLE16=All Through the Night
TTITLE17=Once in Royal David's City
TTITLE18=Ding Dong Merrily on High
TTITLE19=Carol of the Bells
TTITLE20=Must Be Santa
TTITLE21=Grandma Got Run Over by a Reindeer
TTITLE22=The Christmas Song
TTITLE23=Angels from the Realms of Glory
TTITLE24=Auld Lang Syne
EXTD=
EXTT0=
EXTT1=
EXTT2=
EXTT3=
EXTT4=
EXTT5=
EXTT6=
EXTT7=
EXTT8=
EXTT9=
EXTT10=
EXTT11=
EXTT12=
EXTT13=
EXTT14=
EXTT15=
EXTT16=
EXTT17=
EXTT18=
EXTT19=
EXTT20=
EXTT21=
EXTT22=
EXTT23=
EXTT24=
PLAYORDER=
